<?xml version="1.0" encoding="utf-8"?>
<!-- Generator: Adobe Illustrator 25.1.0, SVG Export Plug-In . SVG Version: 6.00 Build 0)  -->
<svg version="1.1" id="Layer_1" xmlns="http://www.w3.org/2000/svg" xmlns:xlink="http://www.w3.org/1999/xlink" x="0px" y="0px"
	 viewBox="0 0 43 43" style="enable-background:new 0 0 43 43;" xml:space="preserve">
<style type="text/css">
	.st0{fill:#FFFFFF;}
</style>
<path class="st0" d="M23.8,36.6l0.1,0.5h-6.2l0.1-0.5c0.6,0,1.1-0.4,1.1-1.4V9.1H9.3c-1,0-1.5,0.4-1.8,1L6.9,9.9l0.9-4
	C8.1,6,8.6,6,9.4,6h23.1c0.4,0,1.1-0.1,1.3-0.1l0.9,4l-0.6,0.2c-0.3-0.6-0.7-1-1.8-1h-9.6v26.1C22.7,36.2,23.1,36.6,23.8,36.6z"/>
<path class="st0" d="M4.4,29.1V13.1c0-1.2,0.6-1.8,0.6-1.8h4.3v0.6c-0.6,0-1.1,0.4-1.1,1.2v15.6c0,1.3,0.9,1.8,1.9,1.8
	c1.1,0,2-0.6,2-1.8V13.1c0-1.3,0.4-1.8,0.4-1.8c2,0,4.6,0,4.6,0V12c-0.6,0-1.1,0.4-1.1,1v18.6c0,0.6,0.4,1,1.1,1v0.6
	c-0.8,0.1-4.3,0.5-7,0.5c-3,0-5-1.6-6-2.8C4.4,30.4,4.4,29.9,4.4,29.1L4.4,29.1z"/>
<g>
	<polygon class="st0" points="31.2,33.4 31.2,33.4 31.2,33.4 	"/>
	<path class="st0" d="M38.8,21.6c0-7.9-2.7-10.5-7.6-10.5c-2.3,0-5.7,0.1-6.8,0.2v0.6c0.6,0,1.1,0.4,1.1,1v18.6c0,0.6-0.4,1-1.1,1
		v0.6c0.8,0.1,4.2,0.2,6.8,0.2C36.6,33.4,38.8,29.7,38.8,21.6z M31.7,30.2c-0.2,0-2.1,0-2.3,0V14.3c0.2,0,2.1,0,2.5,0
		c1.6,0,2.8,1.5,2.8,7.3C34.7,27.8,33.8,30.2,31.7,30.2z"/>
</g>
</svg>
