<svg viewBox="0 0 64 64" xmlns="http://www.w3.org/2000/svg"><path d="m24.15 19.51c-.1-.14-.2-.2-.37-.19-1.29 0-2.58 0-3.87 0-.06 0-.13.01-.22.02.06.09.09.15.13.2 6.56 9.19 13.12 18.39 19.68 27.58.1.14.2.2.37.2h3.84c.07 0 .14 0 .25-.01-.06-.1-.1-.16-.14-.21-6.56-9.19-13.12-18.39-19.68-27.58z"/><path d="m32 0c-17.67 0-32 14.33-32 32s14.33 32 32 32 32-14.33 32-32-14.33-32-32-32zm6.31 49.28c-2.9-4.13-5.8-8.27-8.72-12.42-.11.12-.2.22-.28.32-3.21 3.66-6.42 7.31-9.64 10.97-.33.37-.64.76-.96 1.14h-2.83c.05-.07.1-.15.16-.21 3.55-4.04 7.09-8.07 10.64-12.11.55-.63 1.1-1.26 1.66-1.89-.05-.07-.08-.13-.12-.19-4.08-5.81-8.15-11.62-12.23-17.42-.04-.06-.1-.11-.16-.17.07-.02.14-.05.21-.05h9.35c.03.05.06.11.1.16 2.67 3.81 5.34 7.62 8.02 11.42.04.06.09.12.15.19.06-.06.1-.1.14-.15 2.95-3.35 5.9-6.71 8.85-10.06.45-.51.89-1.04 1.33-1.56h2.83c-.06.08-.11.16-.17.23-3.4 3.88-6.81 7.75-10.22 11.63-.5.57-1.01 1.15-1.51 1.72.07.1.13.18.18.26 4.19 5.98 8.38 11.95 12.58 17.93.06.09.1.18.16.27h-9.51z"/></svg>