<svg viewBox="0 0 379.54 33.34" xmlns="http://www.w3.org/2000/svg"><g fill="#e87500"><path d="m31.49 5.14-.66.18a1.71 1.71 0 0 0 -1.81-1h-10.02v27c0 1.09.49 1.48 1.15 1.48l.13.54h-6.37l.14-.54c.63 0 1.17-.42 1.17-1.48v-27h-9.92a1.76 1.76 0 0 0 -1.84 1l-.67-.18 1-4.14a5.37 5.37 0 0 0 1.6.15h23.84a5 5 0 0 0 1.33-.15zm-3.49 24.31c-2.75 0-6.19-.1-7-.2v-.61a1 1 0 0 0 1.09-.9v-19.41a1 1 0 0 0 -.92-1.07h-.27v-.62c1.06-.1 4.6-.23 7-.23 5.11 0 7.86 2.72 7.86 10.9-.01 8.33-2.27 12.14-7.76 12.14zm.7-19.73h-2.7v16.4h2.41c2.12 0 3.12-2.49 3.12-8.86.04-5.95-1.22-7.54-2.88-7.54zm-15.21-2.43v-.65h-4.72a3 3 0 0 0 -.45 1.83v16.17a1.84 1.84 0 0 1 -1.77 1.91h-.23a1.79 1.79 0 0 1 -2-1.56 1.93 1.93 0 0 1 0-.34v-16.16a1.09 1.09 0 0 1 .92-1.22h.18v-.63h-4.52a2.55 2.55 0 0 0 -.67 1.84v16.52a5 5 0 0 1 -.23 1.86 7.94 7.94 0 0 0 6.24 2.94 69.31 69.31 0 0 0 7.2-.52v-.64a1 1 0 0 1 -1.09-.89.41.41 0 0 1 0-.11v-19.28a1 1 0 0 1 .91-1.08z"/><path d="m55.9 14.89-.4.15c-.18-.43-.49-.6-1.24-.6h-2.58v8.56c0 .51.27.68.66.68v.46h-3.72v-.45a.58.58 0 0 0 .66-.5.54.54 0 0 0 0-.18v-8.57h-2.49c-.8 0-1.08.15-1.28.6l-.43-.15.53-2.46a4.77 4.77 0 0 0 1 .08h7.88a5.26 5.26 0 0 0 .89-.08z"/><path d="m68.28 24.09h-3.68v-.45c.39 0 .62-.2.62-.67v-3.97h-4.63v4c0 .45.22.67.63.67v.46h-3.67v-.46c.45 0 .63-.2.63-.67v-9.36c0-.47-.23-.63-.65-.63v-.45h3.69v.44c-.4 0-.63.15-.63.63v3.37h4.63v-3.36c0-.48-.23-.63-.62-.63v-.45h3.68v.44c-.43 0-.63.15-.63.63v9.37c0 .47.24.67.63.67z"/><path d="m79.11 21.57-.62 2.6a8.42 8.42 0 0 0 -1-.08h-7.16v-.45c.41 0 .63-.24.63-.68v-9.32c0-.45-.23-.69-.63-.69v-.45h7.28a5.26 5.26 0 0 0 .89-.08l.5 2.48-.38.13a1 1 0 0 0 -1-.6h-4.23v2.29h3.85c.43 0 .61-.25.61-.53h.44v3h-.44c0-.34-.16-.56-.61-.56h-3.85v3.51h4.22a1 1 0 0 0 1.09-.7z"/><path d="m95.91 13c-.38 0-.63.19-.63.67v7.56a2.9 2.9 0 0 0 .2 1.13 7.89 7.89 0 0 1 -4.81 2 7 7 0 0 1 -4.9-2 3.55 3.55 0 0 0 .23-1.16v-7.48c0-.55-.23-.76-.64-.76v-.45h3.64v.49c-.42 0-.65.19-.65.76v7c0 1 .83 1.59 2.37 1.59s2.28-.8 2.28-1.59v-7.12c0-.52-.23-.71-.63-.71v-.45h3.54z"/><path d="m108.62 13a.59.59 0 0 0 -.64.54v10.55h-1.85a2.88 2.88 0 0 0 -.4-.78l-5-7v6.61a.6.6 0 0 0 .52.67.28.28 0 0 0 .13 0v.46h-3.38v-.41c.42 0 .63-.19.63-.67v-9.33a.58.58 0 0 0 -.53-.63h-.1v-.45h3a2.29 2.29 0 0 0 .41.79l4.42 6.16v-6c0-.35-.15-.58-.63-.58v-.45h3.47z"/><path d="m114.36 24.09h-3.69v-.45c.38 0 .63-.19.63-.67v-9.33c0-.48-.23-.66-.63-.66v-.45h3.69v.47a.57.57 0 0 0 -.63.5.43.43 0 0 0 0 .16v9.34c0 .47.23.67.63.67z"/><path d="m127.29 13c-.31 0-.56.24-.74.76l-3.06 8.92a2.32 2.32 0 0 0 -.16.68.27.27 0 0 0 .24.3v.46h-3.87v-.44a.28.28 0 0 0 .31-.25 4.53 4.53 0 0 0 -.26-.94l-3-8.5c-.21-.6-.41-.94-.77-.94v-.45h3.7v.4c-.28 0-.44.16-.44.36a2.11 2.11 0 0 0 .1.5l2.49 7.69 2.28-7.58a2.36 2.36 0 0 0 .11-.59c0-.22-.11-.38-.43-.38v-.45h3.46z"/><path d="m137.69 21.57-.6 2.6a7.45 7.45 0 0 0 -.94-.08h-7.24v-.45c.41 0 .62-.24.62-.68v-9.32c0-.45-.23-.69-.62-.69v-.45h7.27a5.47 5.47 0 0 0 .9-.08l.53 2.48-.38.13a1 1 0 0 0 -1-.6h-4.23v2.29h3.85c.43 0 .61-.25.61-.53h.43v3h-.43c0-.34-.16-.56-.61-.56h-3.85v3.51h4.21a1 1 0 0 0 1.1-.7z"/><path d="m149.15 24.09h-3.15a26.12 26.12 0 0 1 -1.8-4.34h-1.72v3.25c0 .48.23.67.64.67v.46h-3.6v-.45a.58.58 0 0 0 .62-.55.24.24 0 0 0 0-.12v-9.37a.55.55 0 0 0 -.46-.63h-.16v-.45c1.17 0 3.22-.13 4.1-.13 3.32 0 5.26.87 5.26 3.54a3.52 3.52 0 0 1 -2.42 3.39 22.26 22.26 0 0 0 1.85 3.88 1 1 0 0 0 .9.44zm-5.39-9.78h-1.31v3.44h1.44c1.75 0 2.53-.75 2.53-1.84s-.63-1.6-2.66-1.6z"/><path d="m154.8 24.37a22.26 22.26 0 0 1 -2.7-.28 2.47 2.47 0 0 0 -.89.21l-.5-3.37.55-.13c.3.74 1.12 1.62 3.27 1.63 1.84 0 2.39-.69 2.39-1.5 0-.61-.5-1.08-1.39-1.42l-1.87-.73a3.4 3.4 0 0 1 -2.57-3.29c0-2.24 1.94-3.24 4.11-3.24a23.29 23.29 0 0 1 2.36.24 1.93 1.93 0 0 0 .79-.13l.4 2.91-.56.12a3.09 3.09 0 0 0 -2.83-1.24c-1.45 0-1.82.63-1.82 1.17s.35.88 1.26 1.23l2 .76a3.56 3.56 0 0 1 2.62 3.47c-.02 2.22-1.73 3.59-4.62 3.59z"/><path d="m165 24.09h-3.69v-.45c.38 0 .63-.19.63-.67v-9.33c0-.48-.23-.66-.63-.66v-.45h3.69v.47a.57.57 0 0 0 -.63.5.43.43 0 0 0 0 .16v9.34c0 .47.23.67.63.67z"/><path d="m177.4 14.89-.4.11c-.19-.43-.5-.6-1.24-.6h-2.59v8.6a.59.59 0 0 0 .49.68.54.54 0 0 0 .18 0v.46h-3.72v-.45a.59.59 0 0 0 .66-.53.38.38 0 0 0 0-.15v-8.57h-2.5c-.79 0-1.08.15-1.27.6l-.43-.15.52-2.46a4.77 4.77 0 0 0 1 .08h7.9a5.26 5.26 0 0 0 .89-.08z"/><path d="m189.36 13c-.38 0-.65.21-1 .76l-3.23 5.6v3.64c0 .48.23.67.63.67v.46h-3.67v-.45c.41 0 .63-.2.63-.67v-3.69l-3.19-5.57c-.34-.58-.55-.79-1-.79v-.45h4v.49a.32.32 0 0 0 -.33.27.79.79 0 0 0 .12.3l1.83 3.54 1.82-3.45a1.06 1.06 0 0 0 .15-.42c0-.14-.05-.29-.31-.29v-.45h3.59z"/><path d="m201.23 24.37a5.68 5.68 0 0 1 -5.87-5.48 5.81 5.81 0 0 1 0-.59 5.87 5.87 0 0 1 11.74 0 5.68 5.68 0 0 1 -5.27 6.06 4.14 4.14 0 0 1 -.6.01zm0-10.11c-1.77 0-3.31 1.38-3.31 4s1.5 4.07 3.31 4.07 3.35-1.41 3.35-4-1.53-4.07-3.35-4.07z"/><path d="m217.78 14.88-.38.13a1.1 1.1 0 0 0 -1.13-.57h-4.12v2.44h3.85c.44 0 .61-.25.61-.53h.43v3h-.43c0-.31-.17-.56-.63-.56h-3.84v4.07c0 .53.27.75.66.75v.46h-3.72v-.43c.38 0 .63-.25.63-.75v-9.25a.61.61 0 0 0 -.52-.68h-.11v-.46h7.1a6.35 6.35 0 0 0 1.07-.08z"/><path d="m234.41 14.89-.41.11c-.18-.43-.49-.6-1.24-.6h-2.58v8.6c0 .51.27.68.66.68v.46h-3.72v-.45a.58.58 0 0 0 .66-.5.54.54 0 0 0 0-.18v-8.57h-2.48c-.8 0-1.08.15-1.28.6l-.43-.15.53-2.46a4.77 4.77 0 0 0 1 .08h7.88a5.26 5.26 0 0 0 .89-.08z"/><path d="m244.83 21.57-.6 2.6a7.45 7.45 0 0 0 -.94-.08h-7.29v-.45c.42 0 .63-.24.63-.68v-9.32c0-.45-.23-.69-.63-.69v-.45h7.28a5.26 5.26 0 0 0 .89-.08l.53 2.48-.38.13a.94.94 0 0 0 -1-.6h-4.25v2.29h3.93c.43 0 .61-.25.61-.53h.39v3h-.43c0-.34-.17-.56-.61-.56h-3.86v3.51h4.22a1 1 0 0 0 1.09-.7z"/><path d="m256.61 24.09h-4v-.45c.28 0 .38-.12.38-.27a.71.71 0 0 0 -.15-.36l-1.57-2.8-1.52 2.79a.79.79 0 0 0 -.13.33c0 .15.08.29.33.29v.46h-3.76v-.46c.43 0 .7-.14 1-.7l2.81-4.63-2.78-4.51c-.38-.62-.58-.81-1-.81v-.45h4v.48c-.27 0-.35.1-.35.24a1.3 1.3 0 0 0 .18.42l1.64 2.83 1.56-2.9a.89.89 0 0 0 .11-.35c0-.14-.1-.24-.33-.24v-.45h3.62v.45c-.43 0-.66.15-1 .76l-2.78 4.66 2.78 4.58a1 1 0 0 0 1 .63z"/><path d="m269.39 24.09h-3.68v-.45c.33 0 .43-.15.43-.37a1.43 1.43 0 0 0 -.09-.41l-.23-.68a11.93 11.93 0 0 1 -2.23.2 13.78 13.78 0 0 1 -2.22-.2l-.23.76a2.41 2.41 0 0 0 0 .38c0 .18.12.27.45.32v.46h-3.46v-.46c.28 0 .53-.14.76-.8l3.11-9.06a1.91 1.91 0 0 0 .12-.47c0-.18-.07-.34-.28-.34v-.45h3.85v.48a.3.3 0 0 0 -.31.25 2 2 0 0 0 .14.54l3.2 9.1c.2.55.44.75.72.75zm-5.85-9-1.54 5.18a8.31 8.31 0 0 0 1.65.16 7.73 7.73 0 0 0 1.59-.16z"/><path d="m274.91 24.37a22.1 22.1 0 0 1 -2.69-.28 2.52 2.52 0 0 0 -.9.21l-.49-3.37.54-.13c.3.74 1.13 1.62 3.28 1.63 1.83 0 2.38-.69 2.38-1.5 0-.61-.5-1.08-1.39-1.42l-1.87-.73a3.42 3.42 0 0 1 -2.56-3.29c0-2.24 1.93-3.24 4.1-3.24a23.78 23.78 0 0 1 2.37.24 1.93 1.93 0 0 0 .79-.13l.4 2.91-.57.12a3.06 3.06 0 0 0 -2.81-1.24c-1.46 0-1.82.63-1.82 1.17s.34.88 1.25 1.23l2 .76a3.57 3.57 0 0 1 2.57 3.47c0 2.22-1.68 3.59-4.58 3.59z"/><path d="m296.72 24.09h-3.72v-.45c.34 0 .44-.15.44-.37a1.43 1.43 0 0 0 -.09-.41l-.23-.68a11.93 11.93 0 0 1 -2.23.2 13.78 13.78 0 0 1 -2.22-.2l-.23.76a2.47 2.47 0 0 0 -.05.38c0 .18.12.27.45.32v.46h-3.46v-.46c.28 0 .53-.14.76-.8l3.11-9.06a1.91 1.91 0 0 0 .12-.47c0-.18-.07-.34-.29-.34v-.45h3.92v.48a.29.29 0 0 0 -.32.24 2.39 2.39 0 0 0 .15.54l3.2 9.1c.19.55.44.75.72.75zm-5.85-9-1.54 5.18a8.31 8.31 0 0 0 1.65.16 7.73 7.73 0 0 0 1.59-.16z"/><path d="m306.93 14.89-.4.15c-.18-.43-.5-.6-1.24-.6h-2.58v8.56c0 .51.26.68.66.68v.46h-3.72v-.45a.59.59 0 0 0 .66-.53.38.38 0 0 0 0-.15v-8.57h-2.5c-.79 0-1.07.15-1.27.6l-.43-.15.53-2.46a4.77 4.77 0 0 0 1 .08h7.85a5.47 5.47 0 0 0 .9-.08z"/><path d="m317.32 24.22c-1.49 0-3.31-.07-4.3-.13v-.45a.57.57 0 0 0 .63-.5v-9.5c0-.53-.23-.66-.63-.66v-.45c1.11 0 2.63-.12 4.43-.12 4.37 0 6.14 2 6.14 5.78 0 3.38-1.59 6.03-6.27 6.03zm0-9.89h-1.24v7.89h1.24c2.48 0 3.82-1.63 3.82-4.14a3.47 3.47 0 0 0 -3.14-3.75 3.42 3.42 0 0 0 -.68 0z"/><path d="m336 24.09h-3.7v-.45c.33 0 .43-.15.43-.37a1.42 1.42 0 0 0 -.08-.41l-.23-.68a12 12 0 0 1 -2.24.2 14.88 14.88 0 0 1 -2.21-.2l-.23.76a1.65 1.65 0 0 0 -.05.38c0 .18.11.27.44.32v.46h-3.45v-.46c.28 0 .53-.14.76-.8l3.11-9.06a1.89 1.89 0 0 0 .11-.47c0-.18-.06-.34-.28-.34v-.45h3.86v.48a.29.29 0 0 0 -.32.24 2.39 2.39 0 0 0 .15.54l3.19 9.1c.2.55.45.75.73.75zm-5.85-9-1.54 5.18a8.41 8.41 0 0 0 1.66.16 7.73 7.73 0 0 0 1.59-.16z"/><path d="m346.39 21.64-.61 2.56a9.81 9.81 0 0 0 -1.08-.08h-7.09v-.48c.41 0 .63-.2.63-.68v-9.32a.57.57 0 0 0 -.49-.65h-.14v-.45h3.72v.46a.63.63 0 0 0 -.66.6.4.4 0 0 0 0 .11v8.45h4.26a1 1 0 0 0 1.06-.65z"/><path d="m356.94 21.64-.61 2.56a9.81 9.81 0 0 0 -1.08-.08h-7.09v-.48c.41 0 .62-.2.62-.68v-9.32a.58.58 0 0 0 -.49-.65h-.13v-.45h3.72v.46a.63.63 0 0 0 -.66.6.4.4 0 0 0 0 .11v8.45h4.27a1 1 0 0 0 1.06-.65z"/><path d="m369.42 24.09h-3.69v-.45c.33 0 .43-.15.43-.37a1.42 1.42 0 0 0 -.08-.41l-.23-.68a11.93 11.93 0 0 1 -2.23.2 13.78 13.78 0 0 1 -2.22-.2l-.23.76a2.47 2.47 0 0 0 -.05.38c0 .18.12.27.45.32v.46h-3.46v-.46c.28 0 .53-.14.76-.8l3.13-9.06a1.91 1.91 0 0 0 .12-.47c0-.18-.07-.34-.29-.34v-.45h3.86v.48a.29.29 0 0 0 -.32.24 2.39 2.39 0 0 0 .15.54l3.19 9.1c.2.55.45.75.73.75zm-5.85-9-1.57 5.18a8.31 8.31 0 0 0 1.65.16 7.73 7.73 0 0 0 1.59-.16z"/><path d="m374.94 24.37a22.1 22.1 0 0 1 -2.69-.28 2.33 2.33 0 0 0 -.9.21l-.49-3.37.54-.13c.3.74 1.13 1.62 3.28 1.63 1.83 0 2.38-.69 2.38-1.5 0-.61-.5-1.08-1.39-1.42l-1.87-.73a3.4 3.4 0 0 1 -2.56-3.29c0-2.24 1.93-3.24 4.1-3.24a23.29 23.29 0 0 1 2.36.24 2 2 0 0 0 .8-.13l.39 2.91-.56.12a3.08 3.08 0 0 0 -2.84-1.24c-1.45 0-1.82.63-1.82 1.17s.35.88 1.26 1.23l2 .76a3.56 3.56 0 0 1 2.61 3.47c0 2.22-1.7 3.59-4.6 3.59z"/></g></svg>